<svg id="Layer_1" data-name="Layer 1" xmlns="http://www.w3.org/2000/svg" viewBox="0 0 953.48 241.09">
	<defs>
		<style>
			.path1 {
				fill: #FFFFFF;
			}
		</style>
	</defs>
	<title>Musare_Logo</title>
	<path class="path1" d="M95.86,74.92c6-12,11.81-25.13,19-37.44C124.6,20.7,138.41,8.12,157.75,3.11c29.8-7.71,51,7.86,52.63,38.66.44,8.11.07,16.26.07,23.95.23-.51.81-1.71,1.33-2.93,6.87-16.17,14.56-31.85,27.57-44.16C252.2,6.48,267.48.55,285.21,1.18c20.08.72,33.62,14.23,36.37,35.64,2.15,16.72-1.23,32.82-4.61,49-5.29,25.24-10.78,50.45-15.79,75.75a97.83,97.83,0,0,0-1.6,20.36c.23,15.44,11.32,23.61,26.4,19.84,10-2.5,17.18-9.29,23.75-16.67,1.31-1.47,1.28-4.37,1.39-6.63.93-18.76,4.86-36.93,10.47-54.79,4.52-14.36,12.64-19.51,27.58-17.47,5.47.75,8,4.21,6.77,10-2.51,11.88-5.49,23.67-7.84,35.58-1.81,9.14-3.07,18.39-4.32,27.62a41.27,41.27,0,0,0-.08,10c.7,6.33,5.56,8.42,10.11,4a58.38,58.38,0,0,0,9.77-12.51c10.31-17.69,16.26-37.11,21.84-56.66a66.49,66.49,0,0,1,2.25-7.14c3.86-9.37,17.64-14.65,26.54-9.74,1.84,1,3.46,4.74,3.16,6.94-1.43,10.54-3.46,21-5.45,31.45-2.58,13.57-5.4,27.09-7.94,40.67a40.93,40.93,0,0,0-.55,9.45c.39,7.89,6.35,11.66,13.07,7.55a67.2,67.2,0,0,0,14.71-12.52c18.59-20.78,30.81-45.4,41-71,6-15,15-18.14,31.14-16.41,5.82.63,7.45,3.45,5.67,9.09a88.4,88.4,0,0,1-4.92,12c-4.79,9.82-4,18.86,2.87,27.49,4.57,5.73,8.81,11.71,13.12,17.64,7.25,10,12,20.73,9.8,33.61l1.11,1c4.46-3.18,8.91-6.38,13.4-9.52,4.84-3.4,6.32-8,7.1-13.9,4.34-32.61,20.12-57.54,51-71,6.51-2.85,14.16-3.39,21.37-4.27s10,4,11.14,10.26c4.37-.23,8.48-.64,12.59-.63,10.54,0,14.28,4.28,12.57,14.72-2.57,15.77-5.57,31.47-8.11,47.24a127.43,127.43,0,0,0-1.68,18.38c-.12,8.73,6.16,12.55,13.21,7.41s13-11.8,19.23-18c1-1,.92-3.1,1-4.71a246.55,246.55,0,0,1,9.51-57.51c4.26-15,16.23-17.94,29.49-16.12,4.51.62,5.17,4.38,4.45,8.11-1.24,6.36-2.9,12.65-4.23,19-2.45,11.64-4.8,23.31-6.16,35.16,4.28-8.39,8.12-17,12.93-25.12,8.08-13.58,17.7-26,32.37-33.1a44,44,0,0,1,16.18-4.31c12.39-.7,19.25,7.18,17.7,19.63-1,8.25-2.71,16.42-3.94,24.65a26.54,26.54,0,0,0-.19,7.43c.53,3.85,2.6,6.45,7,6.3,3.93-.13,5.86-1.57,6.95-5.95,5.67-22.91,17.91-40.83,41-49.12,12.24-4.39,24.81-5.06,36.9,1.06,13.92,7,20.26,25.06,15.27,43.1-3.85,13.89-12.86,23.7-25.5,29.83-8.78,4.26-18.22,7.17-27.38,10.64-1.51.57-3.11.92-4.91,1.44,3.13,6.56,8.1,10.31,14.57,11.66,11.24,2.33,21.63.34,30.08-7.94,4.27-4.19,8.12-8.82,12-13.34,2.65-3,5.58-5.65,9.86-4.28s5.22,5.38,5.59,9.26c1.09,11.32-3.72,20.27-11.4,28.16-21,21.56-62.71,22.31-83.09,1.38-6.58-6.76-10.32-14.05-13.87-27-6.22.7-12.41,2.06-18.57,2-20-.33-30.63-13.54-27.58-33.39a57.72,57.72,0,0,0,.73-9.44c-.05-4.2-2.32-5.46-5.81-3.1a27.24,27.24,0,0,0-6.08,5.83c-10.59,13.62-16.75,29.43-22.07,45.6-2.75,8.36-5,16.9-7.86,25.22-2.22,6.41-7.36,9.08-14,9.3-6.89.23-11.92-2.6-14.87-8.85-1.19-2.52-2.09-5.18-3.35-8.32-2.75,2.25-5.36,4.43-8,6.56-21.08,16.81-42.37,14.1-53.66-11.71-2.49,3.08-4.73,6.12-7.24,8.9-15.33,17-40.18,18.21-54.37,2.7a72.88,72.88,0,0,1-4.53-5.91c-8.33,3.68-16.4,7.3-24.53,10.81a14.84,14.84,0,0,1-4.37,1,63.7,63.7,0,0,0-24.39,7.33c-10,5.38-21.35,5.24-31.89.55a26.89,26.89,0,0,1-10.22-8.35c-7.63-10.37-2-24.16,10.59-26.66a49,49,0,0,1,10.91-.56c3.44.1,6.86.75,10.91,1.23-.56-14.8-9.53-24.69-18.18-35.78-1.3,2.25-2.24,3.89-3.2,5.52C502,193,489.12,211.08,470.67,224.52a53.63,53.63,0,0,1-31.15,10.61c-12.56.25-20.52-5.31-24-17.51-1.68-5.88-2.45-12-3.52-17.45-2.33,5.18-4.76,11.1-7.66,16.78a38.68,38.68,0,0,1-5.8,8.09c-13.62,15.14-32,13.13-42.05-4.49-.74-1.3-1.51-2.57-1.6-2.73-9.51,5-18.41,11.14-28.23,14.61C302,241.15,275.87,231.1,265.74,210a59.15,59.15,0,0,1-4.6-36.65c5.5-30.44,12-60.7,17.72-91.11,1.89-10.09,3.43-20.4,3.51-30.63.1-13-9.37-18.83-21.53-14.1-10.36,4-17.5,12-23.57,20.91-12.37,18.1-20.1,38.42-25.46,59.38-6.05,23.66-10.25,47.8-15.27,71.72-.65,3.11-.08,5.35,2.5,7.82,6.67,6.41,7.68,20.46,2.85,30.56-4.46,9.34-13.92,14.57-25.06,13.84-15.36-1-23.33-10.2-22.85-25.61.86-27.46,7.61-54,12-80.94q5.83-36,11-72.05a44.93,44.93,0,0,0-.22-12.92C175,38.86,167.6,34,156.37,36.56c-7.75,1.75-13.92,6.19-19.51,11.58C125.17,59.4,118.52,73.75,112.4,88.39,99.73,118.69,93,150.57,87.52,182.78c-2.11,12.47-3.65,25-6.18,37.43-2.64,13-11.39,20.59-23.47,21.72-19.09,1.78-30.9-11.45-27-30.26,1.6-7.72,5.39-13.81,12.52-17.74a7,7,0,0,0,3-4.47c5.63-35.51,11.33-71,16.47-106.61A319.68,319.68,0,0,0,65.56,47c.32-10.48-5.41-14.19-15.25-10.5-9,3.36-15.91,9.62-22.23,16.57-3.92,4.31-7.43,9-11.28,13.36-6,6.79-14,5.4-16.17-3.35C-.44,58.75-.2,53,1.86,49.17,14.26,26.2,31.83,8.84,58,2.4c16.71-4.11,30.45,1,37.08,13.14,4.36,8,5.12,16.82,4.77,25.71-.23,5.82-.82,11.63-1.53,17.42S96.6,70.15,95.86,74.92Zm571.49,56.8L665.9,130c-5.51,2.4-11.77,3.82-16.4,7.37-19.08,14.6-25.38,34.94-24.13,58.15.29,5.35,2.82,9.69,8.25,11.35s10.58.1,13.75-4.51c3.34-4.85,6.89-10.09,8.24-15.67C660,168.47,663.51,150.05,667.34,131.73Zm209.49,41.81c11.72-2.74,22.31-6.52,29.37-15.76,3-3.92,4.55-9.59,5-14.62.59-6.4-4.45-10.35-10.89-10.13-6,.2-10.37,3.29-13.85,7.82C879.29,150.23,877,161.11,876.83,173.54Z" transform="translate(0 0)"/>
</svg>
